<svg width="54" height="78" viewBox="0 0 54 78" fill="none" xmlns="http://www.w3.org/2000/svg">
<circle cx="26.5" cy="38.5" r="25.5" fill="#F86061"/>
<path d="M45.428 30.9431C45.3491 31.4851 45.1398 32.3898 44.8002 33.6571C44.4998 34.9018 44.1177 36.3896 43.6539 38.1205C43.1901 39.8514 42.7015 41.6751 42.188 43.5915C41.6745 45.5079 41.1497 47.4047 40.6136 49.2819C40.1083 51.1674 39.6332 52.8787 39.1882 54.4159C38.7741 55.9614 38.4345 57.2287 38.1695 58.2178C37.9127 59.176 37.7833 59.7211 37.781 59.853C37.7766 60.1168 37.6226 60.5062 37.3189 61.0212C37.0236 61.5053 36.6397 61.949 36.1671 62.3525C35.7029 62.725 35.1956 62.8872 34.6453 62.8392C34.1176 62.8303 33.4222 62.6439 32.5589 62.2801C31.7183 61.9555 30.8995 61.4876 30.1025 60.8765C29.3447 60.2428 28.8024 59.4846 28.4758 58.602C28.2826 58.0864 27.9692 57.3399 27.5354 56.3623C27.1408 55.3621 26.6855 54.2794 26.1695 53.1141C25.6927 51.9262 25.2035 50.7847 24.7019 49.6895C24.2394 48.5718 23.8479 47.6221 23.5272 46.8405C23.2149 46.0279 23.0176 45.5278 22.9354 45.3401C22.7732 44.8329 22.4255 44.2759 21.8923 43.6692C21.3983 43.04 20.9493 42.7374 20.5453 42.7617C20.1413 42.7859 19.7595 43.0978 19.4002 43.6972C19.0491 44.2657 18.7474 44.8971 18.495 45.5915C18.309 46.0385 18.0876 46.7412 17.8308 47.6994C17.5824 48.6267 17.3256 49.5849 17.0606 50.574C16.8265 51.5714 16.6111 52.375 16.4146 52.9849C16.0938 54.0585 16.1563 55.1851 16.6022 56.3647C16.3135 56.4529 15.7527 56.5677 14.9198 56.7089C14.0951 56.8193 13.2324 56.8863 12.3316 56.9099C11.4308 56.9336 10.6909 56.8513 10.1119 56.663C9.13932 56.3361 8.39506 55.5901 7.87906 54.4248C7.39398 53.2679 7.32648 51.9743 7.67655 50.5442C7.75109 50.266 7.94269 49.4891 8.25135 48.2135C8.5992 46.9153 9.01442 45.3039 9.49701 43.3792C10.0105 41.4628 10.5654 39.3919 11.1617 37.1664C11.7581 34.9409 12.3306 32.7422 12.8795 30.5702C13.4675 28.3756 13.9863 26.3778 14.4357 24.5768C14.9244 22.7531 15.3136 21.3004 15.6035 20.2185C15.8934 19.1367 16.0383 18.5958 16.0383 18.5958C17.9404 19.0392 19.495 19.6048 20.7021 20.2926C21.9092 20.9805 22.8254 21.8886 23.4506 23.0169C23.7304 23.4562 24.1099 24.2039 24.5889 25.2599C25.0679 26.3158 25.5756 27.512 26.112 28.8484C26.6876 30.1621 27.2323 31.4676 27.7461 32.7647C28.2907 34.0702 28.7604 35.223 29.1549 36.2232C29.5578 37.1925 29.8188 37.8257 29.938 38.1226C30.2669 38.8733 30.629 39.5004 31.0241 40.0038C31.4585 40.4846 31.8623 40.7088 32.2354 40.6762C33.0435 40.6277 33.6918 39.6917 34.1805 37.868L37.6905 24.3975C38.0471 24.4267 38.6385 24.5686 39.4648 24.8232C40.322 25.086 41.1965 25.4694 42.0885 25.9734C43.0732 26.5023 43.9195 27.1763 44.6277 27.9955C45.3358 28.8147 45.6026 29.7972 45.428 30.9431Z" fill="white"/>
</svg>
