<svg width="45" height="68" viewBox="0 0 45 68" fill="none" xmlns="http://www.w3.org/2000/svg">
<path fill-rule="evenodd" clip-rule="evenodd" d="M13.5262 10.0038L12.9682 11.7242C11.2922 14.459 9.50293 17.5474 7.84321 20.7657C5.62265 25.0714 3.42147 30.0032 2.16053 34.8398C-0.351178 25.4149 -0.154827 13.1554 0.226785 6.2859C0.399085 3.18431 2.78196 0.724012 5.85833 0.29329C9.60931 -0.231887 13.0629 2.4184 13.5262 6.17753L13.5262 10.0038ZM38.3325 48.0567C39.2109 47.8539 40.0576 47.4522 40.8037 46.8443C43.4103 44.7208 43.6094 39.8864 41.4859 37.2798C37.6456 32.566 31.9401 30.2668 26.3007 30.5795L27.4803 28.1295C26.3626 28.1723 25.1883 28.3345 24.0809 28.5702C22.4634 28.9144 21.0425 29.4041 20.1867 29.8677C19.8832 30.0321 19.5039 29.9193 19.3395 29.6158C19.1751 29.3123 19.2879 28.933 19.5914 28.7686C20.5906 28.2273 22.138 27.7057 23.8207 27.3475C25.1891 27.0563 26.6825 26.8655 28.0876 26.8682L33.8934 14.8101C35.4076 11.3384 33.7833 7.29939 30.2871 5.84263C27.4197 4.64787 24.1164 5.55314 22.3897 8.1354C17.6409 15.2372 7.64106 30.9062 7.09718 41.5096C6.43694 54.3816 6.9402 64.5978 7.0693 66.8466C7.08438 67.1093 7.3018 67.3087 7.56497 67.3087L32.6324 67.3087C32.7298 67.3087 32.8267 67.2946 32.9198 67.2659C35.0953 66.5934 37.1806 65.5001 39.0544 63.9736C41.638 61.8688 43.5061 59.1885 44.6077 56.2641C45.7929 53.1179 44.2031 49.6065 41.0569 48.4213C40.1576 48.0826 39.2286 47.9705 38.3325 48.0567ZM23.3035 53.5034C21.18 50.8968 21.5716 47.0623 24.1782 44.9388C26.7847 42.8153 30.6193 43.2068 32.7428 45.8134C34.079 47.4536 36.0927 48.2167 38.0516 48.0281C36.1326 48.4708 34.4641 49.8347 33.7178 51.8158C33.3539 52.7818 32.7398 53.668 31.8682 54.3781C29.2616 56.5016 25.4271 56.11 23.3035 53.5034Z" fill="#F86061"/>
</svg>
