<svg width="63" height="61" viewBox="0 0 63 61" fill="none" xmlns="http://www.w3.org/2000/svg">
<path fill-rule="evenodd" clip-rule="evenodd" d="M32.6947 7.72586C35.9234 1.45835 42.6263 -0.14827 46.1383 0.0104538C48.6568 0.124279 49.7913 2.36064 49.7913 4.06518V12.0484C52.9806 13.6518 55.1138 15.7891 56.4227 18.4529C57.7134 21.0795 58.1049 24.0294 58.1737 27.0535L61.3379 29.6526C61.8643 30.085 62.1694 30.7305 62.1694 31.4117V41.5136C62.1694 41.8451 62.097 42.1725 61.9573 42.4731C59.4639 47.8378 55.0424 50.7366 49.7913 52.794V55.6944C49.7913 58.2089 47.7529 60.2473 45.2383 60.2473H37.2712C34.7566 60.2473 32.7182 58.2089 32.7182 55.6944V53.489H22.972V55.3387C22.972 57.8532 20.9336 59.8916 18.4191 59.8916H10.3801C7.86853 59.8916 5.82682 57.8585 5.8271 55.3405C5.82739 52.7774 5.82769 48.8046 5.82699 47.523C5.78932 47.3947 5.7337 47.2166 5.65635 46.9732L5.56556 46.6884L5.56554 46.6884C5.40408 46.1825 5.19351 45.5228 4.96244 44.7532L4.94212 44.6855C3.37898 39.4799 0.476282 29.8131 4.63593 20.5939C4.94567 19.9075 5.29374 19.2353 5.68273 18.5808C3.53222 16.8788 1.37638 14.4753 0.180347 11.2702C-0.3691 9.79775 0.379105 8.15872 1.85151 7.60927C3.32391 7.05983 4.96294 7.80803 5.51239 9.28043C6.25997 11.2838 7.67527 12.9153 9.28334 14.1723C10.7156 12.8727 12.4141 11.7206 14.4139 10.7624C18.9535 8.58716 24.9325 7.46303 32.6947 7.72586ZM32.8154 20.5712C32.8154 22.1427 31.5414 23.4168 29.9698 23.4168L21.5241 23.4168C19.9525 23.4168 18.6785 22.1427 18.6785 20.5712C18.6785 18.9996 19.9525 17.7256 21.5241 17.7256L29.9698 17.7256C31.5414 17.7256 32.8154 18.9996 32.8154 20.5712ZM44.0069 29.7565C45.9321 29.7565 47.4928 28.1959 47.4928 26.2707C47.4928 24.3455 45.9321 22.7848 44.0069 22.7848C42.0817 22.7848 40.5211 24.3455 40.5211 26.2707C40.5211 28.1959 42.0817 29.7565 44.0069 29.7565Z" fill="#F86061"/>
</svg>
