<svg width="53" height="53" viewBox="0 0 53 53" fill="none" xmlns="http://www.w3.org/2000/svg">
<path fill-rule="evenodd" clip-rule="evenodd" d="M42.5896 20.8214C48.3393 20.8214 53.0003 16.1604 53.0003 10.4107C53.0003 4.66104 48.3393 0 42.5896 0C36.8399 0 32.1789 4.66104 32.1789 10.4107C32.1789 11.5789 32.3713 12.7021 32.7261 13.7505L18.9991 20.614C17.1227 17.8814 13.976 16.0892 10.4107 16.0892C4.66104 16.0892 0 20.7502 0 26.4999C0 32.2496 4.66104 36.9106 10.4107 36.9106C13.976 36.9106 17.1227 35.1184 18.9991 32.3858L32.7262 39.2493C32.3713 40.2977 32.1789 41.4211 32.1789 42.5893C32.1789 48.339 36.8399 53 42.5896 53C48.3393 53 53.0003 48.339 53.0003 42.5893C53.0003 36.8396 48.3393 32.1786 42.5896 32.1786C38.7195 32.1786 35.3426 34.2903 33.5484 37.4244L19.9682 30.6342C20.5172 29.3669 20.8214 27.9689 20.8214 26.4999C20.8214 25.0308 20.5172 23.6329 19.9682 22.3655L33.5483 15.5755C35.3425 18.7096 38.7194 20.8214 42.5896 20.8214Z" fill="#F86061"/>
</svg>
